# xmcd
#
# Track frame offsets:
#	150
#	23475
#	44175
#	67500
#
# Disc length: 1171 seconds
#
# Revision: 1
# Processed by: cddbd v1.5PL3 Copyright (c) Steve Scherf et al.
# Submitted via: CDex 1.50Beta5
#
DISCID=28049104
DTITLE=Le Couple - もしもあなたと暮せたら
DYEAR=1900
DGENRE=Pop
TTITLE0=もしもあなたと暮せたら
TTITLE1=縁は異なもの
TTITLE2=もしもあなたと暮せたら (instrumental)
TTITLE3=縁は異なもの (instrumental)
EXTD=
EXTT0=
EXTT1=
EXTT2=
EXTT3=
PLAYORDER=
